<svg width="1030" height="1076" viewBox="0 0 1030 1076" fill="none" xmlns="http://www.w3.org/2000/svg">
<path d="M937.113 161V68.0801H1029.11V161H937.113ZM1029.11 909H937.113L937.113 184H1029.11L1029.11 909Z" fill="#D998F9"/>
<path d="M914.049 232.76V455.4H826.649V259.44C826.649 251.16 822.969 246.56 815.609 246.56C807.329 246.56 801.809 252.08 801.809 261.28V909H709.809V184H801.809V189.52C791.689 200.56 787.089 222.64 787.089 240.12V245.64H799.969V241.04C799.969 198.72 822.049 174.8 859.769 174.8C893.809 174.8 914.049 195.04 914.049 232.76Z" fill="#D998F9"/>
<path fill-rule="evenodd" clip-rule="evenodd" d="M472.578 280.6V909H564.578V253.92C564.578 244.72 570.098 239.2 578.378 239.2C586.658 239.2 592.178 244.72 592.178 253.92V909H684.178V280.6C684.178 209.76 649.218 174.8 578.378 174.8C507.538 174.8 472.578 209.76 472.578 280.6Z" fill="#D998F9"/>
<path fill-rule="evenodd" clip-rule="evenodd" d="M354.991 261.28L354.991 909H446.991V0H356.831V187.68C365.111 196.88 369.711 217.12 369.711 240.12V245.64H356.831V241.04C356.831 198.72 338.431 174.8 297.031 174.8C259.311 174.8 235.391 195.04 235.391 232.76L235.391 909H327.391L327.391 260.36C327.391 252.08 331.991 246.56 341.191 246.56C349.471 246.56 354.991 252.08 354.991 261.28Z" fill="#D998F9"/>
<path fill-rule="evenodd" clip-rule="evenodd" d="M92 173.88L96.6001 71.76H115L119.6 173.88V284.28H92V173.88ZM211.734 1076L211.6 184L174.8 0H36.8L0 184L0.133975 1076H92.134L92 316.48H119.6L119.734 1076H211.734Z" fill="#D998F9"/>
<path d="M741.24 948C751.367 948 760.212 949.859 767.775 953.576C775.466 957.165 781.811 961.972 786.81 967.997C791.937 973.893 795.719 980.687 798.154 988.378C800.718 996.069 802 1003.89 802 1011.84C802 1019.78 800.718 1027.6 798.154 1035.29C795.591 1042.99 791.745 1049.84 786.618 1055.87C781.619 1061.76 775.337 1066.57 767.775 1070.29C760.212 1073.88 751.367 1075.67 741.24 1075.67C731.114 1075.67 722.205 1073.88 714.514 1070.29C706.951 1066.57 700.605 1061.76 695.478 1055.87C690.479 1049.84 686.697 1042.99 684.134 1035.29C681.57 1027.6 680.288 1019.78 680.288 1011.84C680.288 1003.89 681.506 996.069 683.941 988.378C686.505 980.687 690.287 973.893 695.286 967.997C700.413 961.972 706.758 957.165 714.321 953.576C722.012 949.859 730.921 948 741.048 948H741.24ZM741.24 1074.13C748.29 1074.13 754.443 1072.34 759.699 1068.75C764.954 1065.16 769.313 1060.48 772.774 1054.71C776.235 1048.82 778.798 1042.15 780.465 1034.72C782.259 1027.28 783.157 1019.66 783.157 1011.84C783.157 1004.02 782.259 996.39 780.465 988.955C778.67 981.52 776.042 974.919 772.581 969.151C769.12 963.254 764.762 958.511 759.507 954.922C754.251 951.333 748.162 949.538 741.24 949.538C734.318 949.538 728.229 951.333 722.974 954.922C717.718 958.511 713.296 963.254 709.707 969.151C706.246 974.919 703.618 981.52 701.823 988.955C700.157 996.39 699.26 1004.02 699.131 1011.84C699.131 1019.66 699.965 1027.28 701.631 1034.72C703.426 1042.15 706.053 1048.82 709.514 1054.71C713.104 1060.48 717.526 1065.16 722.781 1068.75C728.037 1072.34 734.19 1074.13 741.24 1074.13Z" fill="white"/>
<path d="M663.38 952.615C663.123 953.256 662.995 953.961 662.995 954.73C662.995 955.499 662.995 956.397 662.995 957.422V1066.25C662.995 1068.43 663.123 1070.03 663.38 1071.06C663.636 1071.96 664.085 1072.6 664.726 1072.98V1073.17H643.19V1072.98C643.96 1072.6 644.472 1071.96 644.729 1071.06C644.985 1070.03 645.113 1068.43 645.113 1066.25V957.422C645.113 955.243 644.985 953.705 644.729 952.807C644.472 951.782 643.96 951.013 643.19 950.5H664.726C663.956 951.269 663.508 951.974 663.38 952.615Z" fill="white"/>
<path d="M568.34 950.5C578.595 950.5 587.44 952.231 594.875 955.692C602.438 959.153 608.655 963.767 613.526 969.536C618.397 975.176 621.986 981.713 624.293 989.148C626.6 996.454 627.754 1004.02 627.754 1011.84C627.754 1019.66 626.536 1027.28 624.101 1034.72C621.794 1042.02 618.204 1048.56 613.333 1054.33C608.59 1059.97 602.502 1064.52 595.067 1067.98C587.76 1071.44 579.108 1073.17 569.109 1073.17H525.27V1072.98C525.911 1072.6 526.424 1071.89 526.808 1070.87C527.065 1069.58 527.193 1068.05 527.193 1066.25V957.422C527.193 955.243 527.065 953.705 526.808 952.807C526.552 951.782 526.039 951.077 525.27 950.692V950.5H568.34ZM569.109 1071.64C576.288 1071.64 582.377 1069.9 587.376 1066.44C592.503 1062.98 596.669 1058.43 599.874 1052.79C603.078 1047.15 605.386 1040.81 606.796 1033.76C608.206 1026.58 608.911 1019.27 608.911 1011.84C608.911 1004.4 608.078 997.159 606.411 990.109C604.873 982.931 602.438 976.522 599.105 970.881C595.9 965.241 591.734 960.691 586.607 957.23C581.479 953.769 575.39 952.038 568.34 952.038H545.075V1067.02C545.075 1069.97 545.523 1071.51 546.421 1071.64H569.109Z" fill="white"/>
<path d="M511.707 950.5V950.692C509.015 951.59 507.028 953 505.746 954.922C504.464 956.845 503.823 959.986 503.823 964.344V1026.07C503.823 1034.4 502.477 1041.64 499.786 1047.79C497.222 1053.95 493.761 1059.07 489.403 1063.17C485.172 1067.28 480.301 1070.35 474.789 1072.4C469.277 1074.33 463.637 1075.29 457.869 1075.29C451.972 1075.29 446.14 1074.26 440.372 1072.21C434.603 1070.03 429.412 1066.89 424.797 1062.79C420.311 1058.69 416.657 1053.56 413.837 1047.41C411.145 1041.26 409.799 1034.14 409.799 1026.07V957.422C409.799 955.243 409.671 953.705 409.415 952.807C409.159 951.91 408.646 951.205 407.877 950.692V950.5H429.412V950.692C428.643 951.205 428.194 951.91 428.066 952.807C427.81 953.448 427.681 954.153 427.681 954.922C427.681 955.563 427.681 956.397 427.681 957.422V1026.07C427.681 1033.37 428.707 1039.78 430.758 1045.29C432.937 1050.8 435.693 1055.36 439.026 1058.94C442.487 1062.53 446.396 1065.23 450.755 1067.02C455.241 1068.82 459.792 1069.71 464.406 1069.71C469.149 1069.71 473.764 1068.82 478.25 1067.02C482.865 1065.1 486.967 1062.34 490.556 1058.75C494.145 1055.04 497.03 1050.48 499.209 1045.1C501.388 1039.59 502.477 1033.24 502.477 1026.07V964.344C502.477 959.986 501.837 956.845 500.555 954.922C499.273 953 497.35 951.59 494.786 950.692V950.5H511.707Z" fill="white"/>
<path d="M399.484 950.5V951.077L395.254 968.382C394.229 966.075 393.011 963.959 391.601 962.037C390.319 959.986 388.588 958.255 386.409 956.845C384.358 955.307 381.795 954.153 378.718 953.384C375.642 952.487 371.86 952.038 367.374 952.038H356.798V1066.64C356.798 1068.69 356.927 1070.16 357.183 1071.06C357.439 1071.96 357.888 1072.6 358.529 1072.98V1073.17H336.994V1072.98C337.635 1072.6 338.083 1071.96 338.34 1071.06C338.724 1070.03 338.917 1068.43 338.917 1066.25V952.038H283.348C279.887 952.038 276.554 952.551 273.35 953.576C270.273 954.474 267.517 955.884 265.082 957.807C262.775 959.729 260.916 962.101 259.506 964.921C258.224 967.741 257.583 971.074 257.583 974.919C257.583 979.919 259.185 984.213 262.39 987.802C265.723 991.391 269.825 994.66 274.696 997.608C279.567 1000.43 284.822 1003.18 290.463 1005.88C296.103 1008.57 301.358 1011.58 306.229 1014.91C311.1 1018.12 315.138 1021.77 318.343 1025.87C321.676 1029.97 323.342 1034.97 323.342 1040.87C323.342 1047.54 321.932 1053.11 319.112 1057.6C316.292 1061.96 312.639 1065.48 308.152 1068.17C303.666 1070.74 298.602 1072.53 292.962 1073.56C287.45 1074.71 281.874 1075.29 276.234 1075.29C267.261 1075.29 259.762 1073.88 253.737 1071.06C247.841 1068.11 243.354 1064.46 240.278 1060.1C237.202 1055.74 235.471 1051 235.087 1045.87C234.702 1040.61 235.599 1035.68 237.778 1031.06C240.086 1026.32 243.547 1022.22 248.161 1018.76C252.904 1015.3 258.673 1013.12 265.466 1012.22C262.005 1010.43 258.737 1008.44 255.66 1006.26C252.584 1004.08 249.892 1001.65 247.585 998.954C245.277 996.262 243.419 993.25 242.009 989.917C240.598 986.456 239.893 982.546 239.893 978.188C239.893 973.702 240.983 969.728 243.162 966.267C245.341 962.806 248.354 959.922 252.199 957.614C256.045 955.307 260.595 953.576 265.851 952.423C271.235 951.141 277.131 950.5 283.541 950.5H399.484ZM305.46 1044.14C305.46 1040.29 304.307 1036.96 301.999 1034.14C299.82 1031.19 296.936 1028.56 293.347 1026.26C289.758 1023.95 285.72 1021.84 281.233 1019.91C276.747 1017.86 272.26 1015.68 267.774 1013.37C262.775 1013.76 258.288 1014.91 254.314 1016.84C250.469 1018.76 247.2 1021.13 244.508 1023.95C241.816 1026.64 239.765 1029.72 238.355 1033.18C236.945 1036.64 236.24 1040.17 236.24 1043.75C236.24 1047.47 237.009 1051.13 238.548 1054.71C240.214 1058.3 242.649 1061.51 245.854 1064.33C249.187 1067.15 253.353 1069.46 258.352 1071.25C263.48 1072.92 269.504 1073.75 276.426 1073.75C286.04 1073.75 293.283 1071.06 298.154 1065.67C303.025 1060.16 305.46 1052.98 305.46 1044.14Z" fill="white"/>
</svg>
