<svg width="79" height="51" viewBox="0 0 79 51" fill="none" xmlns="http://www.w3.org/2000/svg">
<path d="M71.9376 12.3591V5.22607H79V12.3591H71.9376ZM79 49.4366H71.9376V14.1247H79V49.4366Z" fill="#D998F9"/>
<path d="M70.167 17.8678V34.9587H63.4578V19.9159C63.4578 19.2802 63.1753 18.9271 62.6103 18.9271C61.9747 18.9271 61.5509 19.3509 61.5509 20.0571V49.4366H54.4885V14.1247H61.5509V14.5484C60.7741 15.3959 60.4209 17.0909 60.4209 18.4328V18.8565H61.4097V18.5034C61.4097 15.2547 63.1046 13.4185 66.0002 13.4185C68.6133 13.4185 70.167 14.9722 70.167 17.8678Z" fill="#D998F9"/>
<path d="M36.2775 42.0211V21.5402C36.2775 16.1022 38.9612 13.4185 44.3993 13.4185C49.8373 13.4185 52.521 16.1022 52.521 21.5402V42.0211C52.521 47.4592 49.8373 50.1429 44.3993 50.1429C38.9612 50.1429 36.2775 47.4592 36.2775 42.0211ZM43.3399 44.0692C43.3399 44.7755 43.7637 45.1992 44.3993 45.1992C45.0349 45.1992 45.4586 44.7755 45.4586 44.0692V19.4921C45.4586 18.7859 45.0349 18.3621 44.3993 18.3621C43.7637 18.3621 43.3399 18.7859 43.3399 19.4921V44.0692Z" fill="#D998F9"/>
<path d="M26.1915 44.6343C26.8271 44.6343 27.2509 44.2106 27.2509 43.5043V20.0572C27.2509 19.3509 26.8271 18.9272 26.1915 18.9272C25.4853 18.9272 25.1322 19.351 25.1322 19.9866V43.5749C25.1322 44.2106 25.4853 44.6343 26.1915 44.6343ZM27.3921 14.4073V0H34.3133V49.4367H27.3921V49.013C28.169 48.1655 28.3809 46.4705 28.3809 45.1287V44.7049H27.3921V45.058C27.3921 48.3067 25.8384 50.143 22.6603 50.143C19.6941 50.143 18.0698 48.5186 18.0698 45.6937V17.8678C18.0698 14.9723 19.906 13.4185 22.8016 13.4185C25.9796 13.4185 27.3921 15.2548 27.3921 18.5035V18.8566H28.3809V18.4328C28.3809 16.6672 28.0277 15.1135 27.3921 14.4073Z" fill="#D998F9"/>
<path d="M7.41551 5.50866L7.06239 13.3479V21.8228H9.18111V13.3479L8.82799 5.50866H7.41551ZM16.2435 14.1248V49.4367H9.18111V24.2946H7.06239V49.4367H0V14.1248L2.82496 0H13.4185L16.2435 14.1248Z" fill="#D998F9"/>
</svg>
